<svg width="17" height="17" viewBox="0 0 17 17" fill="none" xmlns="http://www.w3.org/2000/svg">
<path d="M14.3438 1.0625H2.65625C2.23356 1.0625 1.82818 1.23041 1.5293 1.5293C1.23041 1.82818 1.0625 2.23356 1.0625 2.65625L1.0625 14.3438C1.0625 14.7664 1.23041 15.1718 1.5293 15.4707C1.82818 15.7696 2.23356 15.9375 2.65625 15.9375H7.21338V10.8803H5.12158V8.5H7.21338V6.68578C7.21338 4.62221 8.4419 3.48234 10.3235 3.48234C11.2246 3.48234 12.167 3.64305 12.167 3.64305V5.66844H11.1287C10.1057 5.66844 9.78662 6.30328 9.78662 6.95439V8.5H12.0703L11.7051 10.8803H9.78662V15.9375H14.3438C14.7664 15.9375 15.1718 15.7696 15.4707 15.4707C15.7696 15.1718 15.9375 14.7664 15.9375 14.3438V2.65625C15.9375 2.23356 15.7696 1.82818 15.4707 1.5293C15.1718 1.23041 14.7664 1.0625 14.3438 1.0625Z" fill="white"/>
</svg>
