<svg width="17" height="17" viewBox="0 0 17 17" fill="none" xmlns="http://www.w3.org/2000/svg">
<path d="M8.50288 4.68159C6.39116 4.68159 4.68784 6.38491 4.68784 8.49663C4.68784 10.6083 6.39116 12.3117 8.50288 12.3117C10.6146 12.3117 12.3179 10.6083 12.3179 8.49663C12.3179 6.38491 10.6146 4.68159 8.50288 4.68159ZM8.50288 10.9769C7.13823 10.9769 6.02261 9.8646 6.02261 8.49663C6.02261 7.12866 7.13491 6.01636 8.50288 6.01636C9.87085 6.01636 10.9832 7.12866 10.9832 8.49663C10.9832 9.8646 9.86753 10.9769 8.50288 10.9769ZM13.3638 4.52554C13.3638 5.02026 12.9654 5.41538 12.474 5.41538C11.9792 5.41538 11.5841 5.01694 11.5841 4.52554C11.5841 4.03413 11.9826 3.63569 12.474 3.63569C12.9654 3.63569 13.3638 4.03413 13.3638 4.52554ZM15.8906 5.42866C15.8341 4.23667 15.5619 3.18081 14.6886 2.31089C13.8187 1.44097 12.7628 1.1687 11.5709 1.10894C10.3423 1.03921 6.66011 1.03921 5.43159 1.10894C4.24292 1.16538 3.18706 1.43765 2.31382 2.30757C1.44058 3.17749 1.17163 4.23335 1.11187 5.42534C1.04214 6.65386 1.04214 10.3361 1.11187 11.5646C1.16831 12.7566 1.44058 13.8125 2.31382 14.6824C3.18706 15.5523 4.2396 15.8246 5.43159 15.8843C6.66011 15.9541 10.3423 15.9541 11.5709 15.8843C12.7628 15.8279 13.8187 15.5556 14.6886 14.6824C15.5585 13.8125 15.8308 12.7566 15.8906 11.5646C15.9603 10.3361 15.9603 6.65718 15.8906 5.42866ZM14.3035 12.8828C14.0445 13.5335 13.5431 14.0349 12.889 14.2972C11.9095 14.6857 9.5853 14.596 8.50288 14.596C7.42046 14.596 5.09292 14.6824 4.11675 14.2972C3.46597 14.0382 2.9646 13.5369 2.70229 12.8828C2.31382 11.9033 2.40347 9.57905 2.40347 8.49663C2.40347 7.41421 2.31714 5.08667 2.70229 4.1105C2.96128 3.45972 3.46265 2.95835 4.11675 2.69604C5.09624 2.30757 7.42046 2.39722 8.50288 2.39722C9.5853 2.39722 11.9128 2.31089 12.889 2.69604C13.5398 2.95503 14.0412 3.4564 14.3035 4.1105C14.6919 5.08999 14.6023 7.41421 14.6023 8.49663C14.6023 9.57905 14.6919 11.9066 14.3035 12.8828Z" fill="white"/>
</svg>
